<svg xmlns="http://www.w3.org/2000/svg" version="1.1" xmlns:xlink="http://www.w3.org/1999/xlink" xmlns:svgjs="http://svgjs.dev/svgjs" width="101" height="100"><svg width="101" height="100" viewBox="0 0 101 100" fill="none" xmlns="http://www.w3.org/2000/svg">
<path d="M9.63037 20.2656L20.6176 31.2528H3.48775C1.59075 35.9548 0.386072 41.0104 0 46.2933H38.7731C42.9264 46.2933 46.2933 42.9264 46.2933 38.7731V0C41.0104 0.386072 35.9548 1.59075 31.2528 3.48775V20.6176L20.2656 9.63037C16.2104 12.6222 12.6222 16.2104 9.63037 20.2656Z" fill="#46A758"></path>
<path d="M53.8135 0.00792405V38.7731C53.8135 42.9264 57.1805 46.2933 61.3338 46.2933H100C99.6139 41.0104 98.4092 35.9548 96.5122 31.2528H79.4893L90.415 20.3271C87.4292 16.2673 83.8463 12.6737 79.7959 9.67579L68.854 20.6176V3.53101C64.1535 1.62193 59.0978 0.405366 53.8135 0.00792405Z" fill="#46A758"></path>
<path d="M99.9921 53.8136H61.3338C57.1805 53.8136 53.8135 57.1805 53.8135 61.3338V99.9921C59.0978 99.5946 64.1535 98.3781 68.854 96.469V79.4893L79.7344 90.3696C83.7896 87.3778 87.3778 83.7896 90.3696 79.7344L79.4893 68.854H96.469C98.3781 64.1535 99.5946 59.0978 99.9921 53.8136Z" fill="#46A758"></path>
<path d="M46.2933 100V61.3338C46.2933 57.1805 42.9264 53.8136 38.7731 53.8136H0.0079252C0.405369 59.0978 1.62194 64.1535 3.53101 68.854H20.6176L9.67579 79.7959C12.6737 83.8463 16.2673 87.4292 20.3271 90.415L31.2528 79.4893V96.5122C35.9548 98.4092 41.0104 99.6139 46.2933 100Z" fill="#46A758"></path>
</svg><style>@media (prefers-color-scheme: light) { :root { filter: none; } }
@media (prefers-color-scheme: dark) { :root { filter: none; } }
</style></svg>
