<svg width="101" height="100" viewBox="0 0 101 100" fill="none" xmlns="http://www.w3.org/2000/svg">
<path d="M10.0509 19.5249L22.1511 31.625H3.22277C1.56477 35.8425 0.460653 40.3385 0 45.0233H34.9746C40.5243 45.0233 45.0233 40.5243 45.0233 34.9746V0C40.3384 0.460646 35.8425 1.56479 31.625 3.22281V22.1511L19.5249 10.051C15.9616 12.7734 12.7733 15.9617 10.0509 19.5249Z" fill="#46A758"/>
<path d="M55.0719 0.00948605V34.9746C55.0719 40.5243 59.5709 45.0233 65.1206 45.0233H100C99.5393 40.3385 98.4352 35.8425 96.7772 31.625H77.9441L89.9903 19.5789C87.2726 16.0118 84.0885 12.8193 80.529 10.0922L68.4701 22.1511V3.26034C64.2537 1.59276 59.7577 0.479209 55.0719 0.00948605Z" fill="#46A758"/>
<path d="M99.9906 55.0719H65.1206C59.5709 55.0719 55.0719 59.5709 55.0719 65.1206V99.9905C59.7577 99.5208 64.2537 98.4073 68.4701 96.7397V77.9441L80.4751 89.9491C84.0384 87.2267 87.2267 84.0383 89.9491 80.4751L77.9441 68.4702H96.7397C98.4073 64.2537 99.5208 59.7577 99.9906 55.0719Z" fill="#46A758"/>
<path d="M45.0233 100V65.1206C45.0233 59.5709 40.5243 55.0719 34.9746 55.0719H0.00945076C0.479172 59.7577 1.59271 64.2537 3.2603 68.4702H22.1511L10.0922 80.5291C12.8193 84.0886 16.0118 87.2726 19.5789 89.9903L31.625 77.9441V96.7772C35.8425 98.4352 40.3384 99.5394 45.0233 100Z" fill="#46A758"/>
</svg>
