<svg width="512" height="512" viewBox="0 0 512 512" fill="none" xmlns="http://www.w3.org/2000/svg">
<path d="M105.738 141.31L151.171 186.743H80.1005C73.8752 202.578 69.7296 219.459 68 237.049H199.319C220.157 237.049 237.049 220.157 237.049 199.319V68C219.459 69.7296 202.578 73.8753 186.743 80.1007V151.171L141.31 105.738C127.931 115.96 115.96 127.931 105.738 141.31Z" fill="#46A758"/>
<path d="M274.779 68.0356V199.319C274.779 220.157 291.671 237.049 312.508 237.049H443.47C441.74 219.459 437.595 202.578 431.369 186.743H360.657L405.887 141.513C395.682 128.12 383.727 116.132 370.362 105.893L325.085 151.171V80.2416C309.253 73.9803 292.372 69.7993 274.779 68.0356Z" fill="#46A758"/>
<path d="M443.435 274.779H312.508C291.671 274.779 274.779 291.671 274.779 312.508V443.434C292.372 441.671 309.253 437.49 325.085 431.228V360.657L370.16 405.732C383.539 395.51 395.51 383.539 405.732 370.16L360.657 325.085H431.229C437.49 309.253 441.671 292.372 443.435 274.779Z" fill="#46A758"/>
<path d="M237.049 443.47V312.508C237.049 291.671 220.157 274.779 199.319 274.779H68.0355C69.7991 292.372 73.9802 309.253 80.2415 325.085H151.171L105.893 370.363C116.132 383.727 128.12 395.682 141.513 405.886L186.743 360.657V431.369C202.578 437.595 219.459 441.74 237.049 443.47Z" fill="#46A758"/>
</svg>
