<svg width="512" height="512" viewBox="0 0 512 512" fill="none" xmlns="http://www.w3.org/2000/svg">
<path d="M104.159 144.091L145.412 185.344H81.0953C73.9728 202.998 69.4496 221.981 68 241.816H213.58C229.174 241.816 241.816 229.174 241.816 213.58V68C221.981 69.4496 202.998 73.9728 185.344 81.0953V145.412L144.091 104.159C128.865 115.392 115.392 128.865 104.159 144.091Z" fill="#46A758"/>
<path d="M270.052 68.0298V213.58C270.052 229.174 282.694 241.816 298.288 241.816H443.467C442.017 221.981 437.494 202.998 430.371 185.344H366.456L407.478 144.322C396.267 129.078 382.815 115.585 367.607 104.329L326.524 145.412V81.2578C308.875 74.0898 289.892 69.522 270.052 68.0298Z" fill="#46A758"/>
<path d="M443.437 270.052H298.288C282.694 270.052 270.052 282.694 270.052 298.288V443.437C289.892 441.945 308.875 437.377 326.524 430.209V366.456L367.376 407.308C382.602 396.075 396.074 382.602 407.308 367.376L366.456 326.524H430.209C437.377 308.875 441.945 289.892 443.437 270.052Z" fill="#46A758"/>
<path d="M241.816 443.467V298.288C241.816 282.694 229.174 270.052 213.58 270.052H68.0298C69.522 289.892 74.0898 308.875 81.2578 326.524H145.412L104.329 367.607C115.585 382.815 129.078 396.267 144.322 407.478L185.344 366.456V430.371C202.998 437.494 221.981 442.017 241.816 443.467Z" fill="#46A758"/>
</svg>
